<svg version="1.1" class="clearos-svg clearfoundation app-vendor-clearfoundation app-free app-category-network app-sub-category-firewall" viewBox="0 0 400 400" preserveAspectRatio="xMinYMin" xmlns="http://www.w3.org/2000/svg" xmlns:xlink= "http://www.w3.org/1999/xlink">
<path fill="#AA0707" d="M91.666,184.647"/>
<path fill="#AA0707" d="M123.245,247.805"/>
<path fill="#AA0707" d="M91.666,184.647"/>
<path fill="#AA0707" d="M123.245,247.805"/>
<g>
	<g>
		<path fill="#686868" d="M397.432,137.337c-7.582-55.294,0-126.472,0-126.472s-42.632-2.03-63.376-4.321
			c-35.493-3.846-84.849-0.095-93.508,2.142c-15.796,4.092-32.147,7.485-38.149,16.646c-4.535,7.002-0.184,10.594,0.355,18.649
			c0.5,8.064-11.172,8.493-13.527,20.3c-2.212,10.832,4.623,10.832,3.473,22.148c-1.102,10.736-13.338,8.119-15.622,21.695
			c-2.212,12.926,9.643,15.526,9.643,26.265c0,10.713-8.247,11.069-8.247,22.86c0,11.839,16.756,20.379,25.122,20.546
			c9.594,0.229,74-3.688,79.328,8.707c5.393,12.387-21.98,34.914-23.63,75.77c-1.618,40.854,24.726,48.879,31.181,47.244
			c6.438-1.617,5.883-27.389,15.065-45.658c9.135-18.271,22.663-27.851,42.964-58.568
			C356.987,195.883,373.768,160.223,397.432,137.337z"/>
	</g>
	<g>
		<path fill="#686868" d="M223.213,262.65c-7.581,55.285,0,126.479,0,126.479s-42.614,2.03-63.398,4.313
			c-35.47,3.871-84.809,0.111-93.484-2.154c-15.78-4.094-32.171-7.486-38.158-16.639c-4.536-6.994-0.214-10.563,0.341-18.619
			c0.532-8.07-11.157-8.5-13.528-20.301c-2.181-10.832,4.655-10.832,3.473-22.17c-1.071-10.688-13.33-8.121-15.622-21.697
			c-2.181-12.907,9.643-15.51,9.643-26.264c0-10.721-8.247-11.068-8.247-22.869c0-11.813,16.787-20.361,25.122-20.537
			c9.65-0.207,74.04,3.694,79.385-8.707c5.393-12.369-22.005-34.897-23.63-75.721c-1.61-40.91,24.749-48.967,31.195-47.355
			c6.431,1.641,5.86,27.412,15.075,45.683c9.142,18.271,22.67,27.819,42.97,58.548C182.795,204.09,199.583,239.75,223.213,262.65z"
			/>
	</g>
</g>
</svg>
